<svg viewBox="0 0 60 60" fill="none" xmlns="http://www.w3.org/2000/svg">
  <g>
    <path d="M50.002 20.0024C44.4798 20.0024 40.0016 15.5238 40.0016 10.0012C40.0016 5.59943 37.1577 1.86489 33.2075 0.528039C32.2019 0.187225 31.1244 0 30.0012 0C24.479 0 20.0008 4.47859 20.0008 10.0012C20.0008 10.006 20.0008 10.0108 20.0008 10.0132C19.9936 15.531 15.5202 20 10.0004 20C4.48062 20 0 24.4762 0 29.9988C0 35.5214 4.47822 40 10.0004 40C15.5226 40 19.9936 44.4714 20.0008 49.9868C20.0008 49.9916 20.0008 49.9964 20.0008 49.9988C20.0008 55.5214 24.479 60 30.0012 60C31.122 60 32.1995 59.8128 33.2075 59.472C37.1577 58.1351 40.0016 54.4006 40.0016 49.9988C40.0016 44.4762 44.4798 39.9976 50.002 39.9976C55.5242 39.9976 60 35.519 60 29.9964C60 24.4738 55.5218 19.9976 50.002 19.9976V20.0024ZM30.0036 40.0024C24.4814 40.0024 20.0032 35.5238 20.0032 30.0012C20.0032 24.4786 24.479 20.0024 30.0036 20.0024C35.5258 20.0024 40.004 24.4786 40.004 30.0012C40.004 35.5238 35.5282 40.0024 30.0036 40.0024Z" fill="#002DB7">
      <animateTransform attributeName="transform"
        type="rotate"
        values="0 30 30;90 30 30;90 30 30;90 30 30;90 30 30"
        keyTimes="0;0.25;0.5;0.75;1"
        dur="3s"
        additive="sum"
        repeatCount="indefinite"
        calcMode="spline"
        keySplines="0.42 0 1 1; 0 0 1 1; 0 0 1 1; 0 0 1 1" />
    </path>
  </g>
</svg>

