<svg viewBox="-2 -2 64 64" xmlns="http://www.w3.org/2000/svg">
  <!-- Лепесток 1 — против часовой -->
  <g>
    <path d="M30.0169 22.4982C30.0169 26.6403 26.662 29.9977 22.5199 29.9977H22.4911C18.3634 29.9833 15.0229 26.6307 15.0229 22.4982C15.0229 18.3658 11.6824 15.0156 7.55469 14.9988H7.52586C3.39818 14.982 0.0576172 11.6319 0.0576172 7.49941C0.0576172 3.36694 3.41261 0 7.55469 0C11.6968 0 15.0517 3.35734 15.0517 7.49941C15.0517 11.6415 18.3922 14.9844 22.5199 14.9988H22.5487C26.6764 15.0156 30.0169 18.3658 30.0169 22.4982Z" fill="#002DB7">
      <animateTransform attributeName="transform" type="rotate" values="0 15 15; -20 15 15; 0 15 15" dur="3s" repeatCount="indefinite" keyTimes="0;0.5;1" calcMode="spline" keySplines="0.42 0 1 1; 0 0 0.58 1"></animateTransform>
    </path>
  </g>

  <!-- Лепесток 2 — по часовой -->
  <g>
    <path d="M60.0002 22.4982C60.0002 26.6403 56.6453 29.9977 52.5032 29.9977H52.4745C48.3468 29.9833 45.0062 26.6307 45.0062 22.4982C45.0062 18.3658 41.6657 15.0156 37.538 14.9988H37.5092C33.3815 14.982 30.041 11.6319 30.041 7.49941C30.041 3.36694 33.396 0 37.538 0C41.6801 0 45.035 3.35734 45.035 7.49941C45.035 11.6415 48.3755 14.9844 52.5032 14.9988H52.5321C56.6597 15.0156 60.0002 18.3658 60.0002 22.4982Z" fill="#002DB7">
      <animateTransform attributeName="transform" type="rotate" values="0 45 15; 20 45 15; 0 45 15" dur="3s" repeatCount="indefinite" keyTimes="0;0.5;1" calcMode="spline" keySplines="0.42 0 1 1; 0 0 0.58 1"></animateTransform>
    </path>
  </g>

  <!-- Лепесток 3 — по часовой -->
  <g>
    <path d="M29.9593 52.4963C29.9593 56.6384 26.6043 59.9957 22.4623 59.9957C18.3202 59.9957 14.9653 56.6384 14.9653 52.4963C14.9653 48.3542 11.6247 45.0137 7.49701 44.9969H7.46824C3.34057 44.9801 0 41.6299 0 37.4975C0 33.365 3.35494 29.998 7.49701 29.998H7.52584C11.6535 30.0124 14.9941 33.3626 14.9941 37.4975C14.9941 41.6323 18.3346 44.9825 22.4623 44.9969H22.4911C26.6188 45.0137 29.9593 48.3638 29.9593 52.4963Z" fill="#002DB7">
      <animateTransform attributeName="transform" type="rotate" values="0 15 45; 20 15 45; 0 15 45" dur="3s" repeatCount="indefinite" keyTimes="0;0.5;1" calcMode="spline" keySplines="0.42 0 1 1; 0 0 0.58 1"></animateTransform>
    </path>
  </g>

  <!-- Лепесток 4 — против часовой -->
  <g>
    <path d="M59.9446 52.4963C59.9446 56.6384 56.5896 59.9957 52.4476 59.9957C48.3055 59.9957 44.9506 56.6384 44.9506 52.4963C44.9506 48.3542 41.61 45.0137 37.4824 44.9969H37.4535C33.3259 44.9801 29.9854 41.6299 29.9854 37.4975C29.9854 33.365 33.3403 29.998 37.4824 29.998H37.5111C41.6388 30.0124 44.9794 33.3626 44.9794 37.4975C44.9794 41.6323 48.3199 44.9825 52.4476 44.9969H52.4764C56.6041 45.0137 59.9446 48.3638 59.9446 52.4963Z" fill="#002DB7">
      <animateTransform attributeName="transform" type="rotate" values="0 45 45; -20 45 45; 0 45 45" dur="3s" repeatCount="indefinite" keyTimes="0;0.5;1" calcMode="spline" keySplines="0.42 0 1 1; 0 0 0.58 1"></animateTransform>
    </path>
  </g>
</svg>
