<svg viewBox="0 0 60 60" xmlns="http://www.w3.org/2000/svg" fill="none">
  <path d="M30 35C30 21.192 18.808 10 5 10V22.5C11.904 22.5 17.5 28.096 17.5 35C17.5 41.904 11.904 47.5 5 47.5V60C18.808 60 30 48.808 30 35Z" fill="#002DB7">
    <animateTransform attributeName="transform" type="translate"
      values="0 0;0 -10;0 -10;0 0;0 0"
      keyTimes="0;0.25;0.5;0.75;1"
      dur="3s" repeatCount="indefinite"
      calcMode="spline"
      keySplines="0 0 1 1;0.42 0 1 1;0 0 1 1;0 0 0.58 1" />
  </path>

  <path d="M55 50V37.44C54.596 37.48 54.186 37.5 53.77 37.5C46.866 37.5 41.27 31.904 41.27 25C41.27 18.096 46.866 12.5 53.77 12.5C54.184 12.5 54.594 12.52 55 12.56V0C41.192 0 30 11.192 30 25C30 38.808 41.192 50 55 50Z" fill="#002DB7">
    <animateTransform attributeName="transform" type="translate"
      values="0 0;0 10;0 10;0 0;0 0"
      keyTimes="0;0.25;0.5;0.75;1"
      dur="3s" repeatCount="indefinite"
      calcMode="spline"
      keySplines="0 0 1 1;0.42 0 1 1;0 0 1 1;0 0 0.58 1" />
  </path>
</svg>

