<svg viewBox="0 0 60 60" fill="none" xmlns="http://www.w3.org/2000/svg">
  <g>
    <path d="M59.9976 28.1136C55.0176 28.8216 49.8 29.2944 44.82 28.3488C49.5624 25.0416 53.5944 21.2616 57.1512 16.7736C54.78 13.9392 52.6464 10.8672 50.5104 7.7976C47.4264 12.2856 43.3968 15.828 39.1272 19.1352C39.8376 13.2288 40.0752 7.32481 39.1272 1.41841C35.5704 0.710408 31.776 0.4728 28.2192 0C28.9296 4.9608 29.4048 10.1568 28.4568 15.1176C25.1376 10.6296 21.3432 6.37679 16.836 3.06959C13.5168 4.95839 10.908 7.55761 7.824 9.68401C9.9576 10.6296 11.3808 12.5184 13.2792 13.9368C13.7544 14.4096 14.2272 15.1176 14.94 15.5904C16.6008 17.244 17.7864 19.1328 19.2096 21.024C13.2816 19.8432 7.1136 20.0784 1.1856 20.7888C1.1856 24.5688 0 28.1112 0 31.8912C4.98 30.7104 10.1976 30.7104 15.1776 31.4184C10.4352 34.7256 6.4032 38.7408 2.8464 43.2288C5.2176 46.0632 7.116 49.1352 9.4872 51.9696C12.5712 47.7168 16.3656 43.7016 20.8704 40.8672C20.3952 44.6472 19.9224 48.4272 20.16 52.2048C20.3976 54.3312 20.3976 56.4576 20.8704 58.5816C24.4272 59.0544 28.2216 59.5272 31.7784 60C31.068 54.804 30.5928 49.8432 31.5408 44.6448C34.6248 49.3704 38.6544 53.3856 43.1616 56.928C46.2456 54.8016 49.0896 52.44 52.1736 50.3136C47.904 47.2416 43.8744 43.2264 40.7904 38.976C46.7184 39.684 52.8864 40.1568 58.8144 38.976C58.8144 35.4336 59.7624 31.6536 60 28.1088L59.9976 28.1136Z"
    fill="#002DB7">
      <animateTransform attributeName="transform"
        attributeType="XML"
        type="rotate"
        from="0 30 30"
        to="180 30 30"
        dur="3s"
        repeatCount="indefinite"
        values="0 30 30;180 30 30;0 30 30"
        keyTimes="0;0.5;1" />
    </path>
  </g>
</svg>
