<svg viewBox="0 0 1274 744" fill="none" xmlns="http://www.w3.org/2000/svg">
<path d="M975.389 189.861H1274C1274 189.861 1159.25 77.2919 937.282 27.4941C715.31 -22.3038 517.161 10.7567 517.161 10.7567C517.161 10.7567 170.881 49.3355 37.2642 251.852C37.2642 251.852 -62.8568 379.161 65.1263 531.807C193.109 684.453 482.072 730.146 482.072 730.146C482.072 730.146 755.911 775.388 992.593 702.36C1229.27 629.332 1274 553.563 1274 553.563H974.708C974.708 553.563 926.004 656.423 798.495 700.191C670.987 743.959 553.71 699.509 553.71 699.509C553.71 699.509 383.873 628.126 343.382 461.459C302.891 294.792 388.375 182.187 388.375 182.187C388.375 182.187 477.23 23.4133 683.056 24.534C888.883 25.6547 975.413 189.837 975.413 189.837L975.389 189.861Z" fill="#002DB7"/>
</svg>
