<svg viewBox="0 0 176 40" fill="none" xmlns="http://www.w3.org/2000/svg">
<g clip-path="url(#clip0_2289_4747)">
<path d="M35.2419 12.5415H46.0311C46.0311 12.5415 41.8852 8.47839 33.8651 6.68098C25.845 4.88356 18.6856 6.07686 18.6856 6.07686C18.6856 6.07686 6.17411 7.46933 1.3464 14.779C1.3464 14.779 -2.27109 19.3741 2.35309 24.8838C6.97727 30.3934 17.4178 32.0427 17.4178 32.0427C17.4178 32.0427 27.312 33.6756 35.8635 31.0398C44.4151 28.4039 46.0311 25.6691 46.0311 25.6691H35.2173C35.2173 25.6691 33.4576 29.3817 28.8506 30.9615C24.2435 32.5413 20.0062 30.9369 20.0062 30.9369C20.0062 30.9369 13.8698 28.3603 12.4068 22.3446C10.9438 16.3289 14.0324 12.2645 14.0324 12.2645C14.0324 12.2645 17.2429 6.53368 24.6796 6.57413C32.1164 6.61459 35.2428 12.5406 35.2428 12.5406L35.2419 12.5415Z" fill="#0080FF"/>
<path d="M8.39014 33.6492L37.3771 0L18.3106 40L15.2554 33.9126L8.39014 33.6492Z" fill="#002DB7"/>
</g>
<path d="M171.103 11.6465C172.777 11.6465 174.009 12.0751 174.797 12.9323C175.599 13.7896 176 14.9981 176 16.558C176 18.0898 175.599 19.2703 174.797 20.0994C174.009 20.9285 172.777 21.3431 171.103 21.3431H167.514V26.1914H163.988V11.6465H171.103ZM172.39 16.1575C172.39 15.7078 172.25 15.3284 171.968 15.0192C171.687 14.71 171.25 14.5555 170.659 14.5555H167.514V18.4341H170.659C171.25 18.4341 171.687 18.2936 171.968 18.0125C172.25 17.7174 172.39 17.3309 172.39 16.8531V16.1575Z" fill="black"/>
<path d="M161.676 11.6465V14.5555H154.794V17.3169H160.008V20.1416H154.794V23.2824H161.718V26.1914H151.268V11.6465H161.676Z" fill="black"/>
<path d="M144.447 11.6465C145.812 11.6465 146.875 11.9346 147.635 12.5107C148.395 13.0869 148.775 13.9793 148.775 15.1879C148.775 15.9327 148.599 16.6072 148.247 17.2115C147.895 17.8158 147.269 18.2655 146.368 18.5606C147.353 18.8276 148.057 19.2492 148.479 19.8254C148.901 20.4015 149.112 21.1112 149.112 21.9544C149.112 23.3175 148.718 24.3645 147.93 25.0953C147.156 25.826 145.988 26.1914 144.426 26.1914H137.312V11.6465H144.447ZM145.502 21.4485C145.502 20.9566 145.341 20.5772 145.017 20.3102C144.693 20.0291 144.215 19.8886 143.581 19.8886H140.753V23.704H143.581C144.201 23.704 144.672 23.5705 144.996 23.3035C145.334 23.0224 145.502 22.636 145.502 22.1441V21.4485ZM145.165 15.5462C145.165 15.0965 145.017 14.7522 144.721 14.5133C144.426 14.2604 143.997 14.1339 143.434 14.1339H140.753V17.5698H143.434C143.982 17.5698 144.405 17.4434 144.7 17.1904C145.01 16.9375 145.165 16.5651 145.165 16.0732V15.5462Z" fill="black"/>
<path d="M134.999 11.6465V14.5555H128.117V17.3169H133.331V20.1416H128.117V23.2824H135.041V26.1914H124.591V11.6465H134.999Z" fill="black"/>
<path d="M109.467 18.8768C109.467 17.4715 109.615 16.291 109.911 15.3354C110.22 14.3798 110.657 13.6069 111.219 13.0167C111.796 12.4264 112.493 12.0048 113.309 11.7519C114.126 11.4849 115.055 11.3514 116.096 11.3514C117.039 11.3514 117.883 11.4427 118.629 11.6254C119.375 11.8081 120.016 12.1032 120.55 12.5108C121.099 12.9183 121.535 13.4453 121.859 14.0917C122.183 14.7241 122.387 15.5041 122.471 16.4316H118.861C118.805 15.9819 118.7 15.6165 118.545 15.3354C118.404 15.0403 118.214 14.8084 117.975 14.6398C117.75 14.4712 117.475 14.3517 117.152 14.2814C116.842 14.2112 116.49 14.176 116.096 14.176C115.646 14.176 115.23 14.2323 114.85 14.3447C114.485 14.4431 114.168 14.6257 113.901 14.8927C113.647 15.1457 113.443 15.5041 113.288 15.9678C113.148 16.4175 113.077 17.0007 113.077 17.7174V20.0572C113.077 20.7599 113.148 21.3431 113.288 21.8068C113.429 22.2706 113.633 22.643 113.901 22.9241C114.168 23.1911 114.485 23.3808 114.85 23.4932C115.23 23.6056 115.646 23.6619 116.096 23.6619C116.87 23.6619 117.489 23.5143 117.954 23.2192C118.432 22.91 118.742 22.3128 118.883 21.4274H122.493C122.38 22.3409 122.162 23.1208 121.838 23.7672C121.514 24.3996 121.085 24.9196 120.55 25.3271C120.016 25.7347 119.375 26.0298 118.629 26.2125C117.883 26.3952 117.039 26.4865 116.096 26.4865C115.055 26.4865 114.126 26.36 113.309 26.1071C112.493 25.8541 111.796 25.4325 111.219 24.8423C110.657 24.2521 110.22 23.4721 109.911 22.5025C109.615 21.5188 109.467 20.3102 109.467 18.8768Z" fill="black"/>
<path d="M99.8227 17.9071C99.8227 16.5299 99.5201 15.5673 98.9149 15.0192C98.3238 14.4571 97.4442 14.176 96.2761 14.176C95.0939 14.176 94.2073 14.4571 93.6162 15.0192C93.0251 15.5673 92.7295 16.5299 92.7295 17.9071V19.8675C92.7295 20.5983 92.7999 21.2096 92.9406 21.7015C93.0954 22.1793 93.3206 22.5657 93.6162 22.8608C93.9117 23.1559 94.2776 23.3667 94.7139 23.4932C95.1643 23.6056 95.685 23.6619 96.2761 23.6619C96.8672 23.6619 97.3809 23.6056 97.8172 23.4932C98.2675 23.3667 98.6405 23.1559 98.936 22.8608C99.2316 22.5657 99.4497 22.1793 99.5905 21.7015C99.7453 21.2096 99.8227 20.5983 99.8227 19.8675V17.9071ZM89.1196 18.7503C89.1196 17.3591 89.2744 16.1927 89.5841 15.2511C89.8937 14.2955 90.3511 13.5296 90.9562 12.9534C91.5614 12.3773 92.3073 11.9697 93.194 11.7308C94.0947 11.4779 95.1221 11.3514 96.2761 11.3514C97.4301 11.3514 98.4505 11.4779 99.3371 11.7308C100.238 11.9697 100.991 12.3773 101.596 12.9534C102.201 13.5296 102.659 14.2955 102.968 15.2511C103.278 16.1927 103.433 17.3591 103.433 18.7503C103.433 20.2118 103.278 21.4415 102.968 22.4392C102.659 23.4229 102.201 24.2169 101.596 24.8212C100.991 25.4255 100.238 25.8541 99.3371 26.1071C98.4505 26.36 97.4301 26.4865 96.2761 26.4865C95.1221 26.4865 94.0947 26.36 93.194 26.1071C92.3073 25.8541 91.5614 25.4255 90.9562 24.8212C90.3511 24.2169 89.8937 23.4229 89.5841 22.4392C89.2744 21.4415 89.1196 20.2118 89.1196 18.7503Z" fill="black"/>
<path d="M86.8814 11.6465V26.1914H83.3559V14.6398H78.2471V26.1914H74.7217V11.6465H86.8814Z" fill="black"/>
<path d="M63.0948 11.6465V17.2747H68.4147V11.6465H71.9401V26.1914H68.4147V20.268H63.0948V26.1914H59.5693V11.6465H63.0948Z" fill="black"/>
<defs>
<clipPath id="clip0_2289_4747">
<rect width="46.0308" height="40" fill="white"/>
</clipPath>
</defs>
</svg>
