<svg viewBox="0 0 1392 182" fill="none" xmlns="http://www.w3.org/2000/svg">
<path d="M1333.45 3.76758C1353.47 3.76758 1368.19 8.89197 1377.61 19.1407C1387.2 29.3895 1392 43.8386 1392 62.488C1392 80.8014 1387.2 94.9144 1377.61 104.827C1368.19 114.74 1353.47 119.696 1333.45 119.696H1290.54V177.661H1248.39V3.76758H1333.45ZM1348.84 57.6997C1348.84 52.3232 1347.16 47.7869 1343.79 44.0906C1340.43 40.3943 1335.21 38.5462 1328.15 38.5462H1290.54V84.9177H1328.15C1335.21 84.9177 1340.43 83.2376 1343.79 79.8773C1347.16 76.3491 1348.84 71.7287 1348.84 66.0163V57.6997Z" fill="#F2F2F2"/>
<path d="M1220.74 3.76758V38.5462H1138.46V71.5607H1200.8V105.331H1138.46V142.882H1221.25V177.661H1096.32V3.76758H1220.74Z" fill="#F2F2F2"/>
<path d="M1014.76 3.76758C1031.08 3.76758 1043.79 7.21184 1052.87 14.1004C1061.96 20.9889 1066.5 31.6577 1066.5 46.1068C1066.5 55.0114 1064.4 63.0761 1060.19 70.3006C1055.99 77.5251 1048.5 82.9016 1037.73 86.4298C1049.51 89.6221 1057.92 94.6624 1062.97 101.551C1068.02 108.439 1070.54 116.924 1070.54 127.005C1070.54 143.302 1065.83 155.819 1056.41 164.556C1047.15 173.292 1033.19 177.661 1014.51 177.661H929.455V3.76758H1014.76ZM1027.38 120.956C1027.38 115.076 1025.45 110.54 1021.58 107.347C1017.71 103.987 1011.99 102.307 1004.41 102.307H970.595V147.922H1004.41C1011.82 147.922 1017.45 146.326 1021.32 143.134C1025.36 139.774 1027.38 135.153 1027.38 129.273V120.956ZM1023.34 50.3911C1023.34 45.0147 1021.58 40.8984 1018.04 38.0422C1014.51 35.0179 1009.38 33.5058 1002.65 33.5058H970.595V74.5849H1002.65C1009.21 74.5849 1014.26 73.0728 1017.79 70.0486C1021.49 67.0243 1023.34 62.572 1023.34 56.6916V50.3911Z" fill="#F2F2F2"/>
<path d="M901.809 3.76758V38.5462H819.53V71.5607H881.87V105.331H819.53V142.882H902.314V177.661H777.381V3.76758H901.809Z" fill="#F2F2F2"/>
<path d="M596.562 90.21C596.562 73.4088 598.328 59.2957 601.862 47.8708C605.563 36.446 610.779 27.2053 617.51 20.1488C624.408 13.0922 632.737 8.05185 642.496 5.02762C652.256 1.83538 663.361 0.239258 675.812 0.239258C687.085 0.239258 697.181 1.33134 706.099 3.51551C715.016 5.69967 722.672 9.22794 729.066 14.1003C735.628 18.9727 740.844 25.2732 744.714 33.0017C748.584 40.5623 751.024 49.887 752.034 60.9758H708.875C708.202 55.5994 706.94 51.2311 705.089 47.8708C703.406 44.3426 701.135 41.5704 698.275 39.5542C695.582 37.5381 692.301 36.11 688.431 35.2699C684.73 34.4298 680.523 34.0098 675.812 34.0098C670.428 34.0098 665.464 34.6819 660.921 36.026C656.546 37.2021 652.76 39.3862 649.563 42.5785C646.535 45.6027 644.095 49.887 642.244 55.4314C640.561 60.8078 639.72 67.7804 639.72 76.349V104.323C639.72 112.724 640.561 119.696 642.244 125.241C643.927 130.785 646.366 135.237 649.563 138.598C652.76 141.79 656.546 144.058 660.921 145.402C665.464 146.746 670.428 147.418 675.812 147.418C685.066 147.418 692.47 145.654 698.022 142.126C703.743 138.43 707.445 131.289 709.127 120.704H752.286C750.94 131.625 748.332 140.95 744.462 148.678C740.592 156.239 735.46 162.455 729.066 167.328C722.672 172.2 715.016 175.729 706.099 177.913C697.181 180.097 687.085 181.189 675.812 181.189C663.361 181.189 652.256 179.677 642.496 176.653C632.737 173.628 624.408 168.588 617.51 161.531C610.779 154.475 605.563 145.15 601.862 133.557C598.328 121.796 596.562 107.347 596.562 90.21Z" fill="#F2F2F2"/>
<path d="M481.25 78.6172C481.25 62.1519 477.632 50.6431 470.397 44.0906C463.33 37.3701 452.814 34.0098 438.848 34.0098C424.714 34.0098 414.114 37.3701 407.047 44.0906C399.98 50.6431 396.447 62.1519 396.447 78.6172V102.055C396.447 110.792 397.288 118.1 398.971 123.981C400.821 129.693 403.514 134.313 407.047 137.842C410.581 141.37 414.955 143.89 420.171 145.402C425.556 146.746 431.781 147.418 438.848 147.418C445.915 147.418 452.057 146.746 457.273 145.402C462.657 143.89 467.116 141.37 470.649 137.842C474.183 134.313 476.791 129.693 478.473 123.981C480.324 118.1 481.25 110.792 481.25 102.055V78.6172ZM353.288 88.6979C353.288 72.0647 355.139 58.1196 358.841 46.8628C362.542 35.4379 368.011 26.2812 375.246 19.3927C382.481 12.5042 391.399 7.63182 401.999 4.7756C412.768 1.75137 425.051 0.239258 438.848 0.239258C452.645 0.239258 464.844 1.75137 475.445 4.7756C486.213 7.63182 495.215 12.5042 502.45 19.3927C509.685 26.2812 515.154 35.4379 518.856 46.8628C522.557 58.1196 524.408 72.0647 524.408 88.6979C524.408 106.171 522.557 120.872 518.856 132.801C515.154 144.562 509.685 154.055 502.45 161.279C495.215 168.504 486.213 173.628 475.445 176.653C464.844 179.677 452.645 181.189 438.848 181.189C425.051 181.189 412.768 179.677 401.999 176.653C391.399 173.628 382.481 168.504 375.246 161.279C368.011 154.055 362.542 144.562 358.841 132.801C355.139 120.872 353.288 106.171 353.288 88.6979Z" fill="#F2F2F2"/>
<path d="M326.538 3.76758V177.661H284.388V39.5543H223.31V177.661H181.161V3.76758H326.538Z" fill="#F2F2F2"/>
<path d="M42.1491 3.76758V71.0567H105.751V3.76758H147.9V177.661H105.751V106.843H42.1491V177.661H0V3.76758H42.1491Z" fill="#F2F2F2"/>
</svg>

