<svg width="22" height="22" viewBox="0 0 22 22" fill="none" xmlns="http://www.w3.org/2000/svg">
<path d="M21 18.7778V16.949C21 16.0403 20.4468 15.2232 19.6031 14.8857L17.3429 13.9816C16.2698 13.5524 15.0469 14.0174 14.53 15.0511L14.3333 15.4444C14.3333 15.4444 11.5556 14.8889 9.33333 12.6667C7.11111 10.4444 6.55556 7.66667 6.55556 7.66667L6.94891 7.46999C7.98264 6.95312 8.44762 5.73015 8.01838 4.65706L7.11432 2.39691C6.77685 1.55323 5.95971 1 5.05104 1H3.22222C1.99492 1 1 1.99492 1 3.22222C1 13.0406 8.95938 21 18.7778 21C20.0051 21 21 20.0051 21 18.7778Z" stroke="#002DB7" stroke-width="1.5" stroke-linejoin="round"/>
</svg>
