<svg width="73" height="92" viewBox="0 0 73 92" fill="none" xmlns="http://www.w3.org/2000/svg">
<path d="M36.6683 90C36.6683 90 21.9166 74.7347 14.8861 67.3167C12.1135 64.3909 9.23714 61.4602 7.0117 58.1018C-1.0573 45.923 -0.944013 29.8289 6.99258 17.3849C15.0951 4.68069 29.3124 -1.27525 44.2044 1.79472C57.4853 4.53316 68.5774 16.2577 71.2479 30.4953C73.6041 43.062 70.3928 54.1268 62.0558 63.3466C54.3122 71.9117 36.6683 90 36.6683 90Z" fill="#F6F6F6" stroke="#002DB7" stroke-width="2" stroke-miterlimit="10"/>
<path d="M49.2419 31.5414H60.0311C60.0311 31.5414 55.8852 27.4783 47.8651 25.6809C39.845 23.8834 32.6856 25.0767 32.6856 25.0767C32.6856 25.0767 20.1741 26.4692 15.3464 33.7789C15.3464 33.7789 11.7289 38.374 16.3531 43.8837C20.9773 49.3933 31.4178 51.0425 31.4178 51.0425C31.4178 51.0425 41.312 52.6755 49.8635 50.0396C58.4151 47.4037 60.0311 44.6689 60.0311 44.6689H49.2173C49.2173 44.6689 47.4576 48.3816 42.8506 49.9614C38.2435 51.5411 34.0062 49.9367 34.0062 49.9367C34.0062 49.9367 27.8698 47.3602 26.4068 41.3445C24.9438 35.3288 28.0324 31.2644 28.0324 31.2644C28.0324 31.2644 31.2429 25.5336 38.6796 25.574C46.1164 25.6145 49.2428 31.5405 49.2428 31.5405L49.2419 31.5414Z" fill="#0080FF"/>
<path d="M22.3906 52.6492L51.3776 19L32.3111 59L29.2559 52.9126L22.3906 52.6492Z" fill="#002DB7"/>
</svg>

