<svg width="20" height="26" viewBox="0 0 20 26" fill="none" xmlns="http://www.w3.org/2000/svg">
<path d="M10.0009 0.75C8.07328 0.751016 6.18916 1.32329 4.58657 2.39453C2.98398 3.46578 1.73481 4.98794 0.996841 6.76875C0.258877 8.54955 0.0652237 10.5091 0.440344 12.3999C0.815463 14.2907 1.74253 16.028 3.10444 17.3922C4.87027 19.158 9.02594 21.7125 9.27185 24.3959C9.30869 24.7968 9.6001 25.125 10.0009 25.125C10.4018 25.125 10.6943 24.7968 10.73 24.3959C10.9759 21.7125 15.1284 19.1623 16.8931 17.3976C18.2566 16.0339 19.1852 14.2966 19.5615 12.4053C19.9379 10.514 19.745 8.55353 19.0074 6.77178C18.2697 4.99004 17.0204 3.46699 15.4173 2.39515C13.8142 1.32331 11.9293 0.750803 10.0009 0.75Z" fill="#FF4433"/>
<path d="M10.0016 13.8352C9.56356 13.8352 9.12982 13.749 8.72513 13.5813C8.32043 13.4137 7.95272 13.168 7.64299 12.8583C7.33325 12.5485 7.08755 12.1808 6.91992 11.7761C6.75229 11.3714 6.66602 10.9377 6.66602 10.4996C6.66602 10.0616 6.75229 9.62786 6.91992 9.22317C7.08755 8.81848 7.33325 8.45077 7.64299 8.14103C7.95272 7.83129 8.32043 7.5856 8.72513 7.41797C9.12982 7.25034 9.56356 7.16406 10.0016 7.16406C10.8863 7.16406 11.7347 7.51549 12.3602 8.14103C12.9858 8.76658 13.3372 9.61499 13.3372 10.4996C13.3372 11.3843 12.9858 12.2327 12.3602 12.8583C11.7347 13.4838 10.8863 13.8352 10.0016 13.8352Z" fill="white"/>
</svg>
