<svg viewBox="0 0 178 155" fill="none" xmlns="http://www.w3.org/2000/svg">
<path d="M136.28 48.5984H178.001C178.001 48.5984 161.969 32.8539 130.956 25.8889C99.9421 18.9239 72.257 23.548 72.257 23.548C72.257 23.548 23.8752 28.9438 5.2065 57.2689C5.2065 57.2689 -8.78225 75.0749 9.09935 96.4248C26.9809 117.775 67.3544 124.165 67.3544 124.165C67.3544 124.165 105.615 130.493 138.684 120.279C171.752 110.065 178.001 99.4677 178.001 99.4677H136.185C136.185 99.4677 129.38 113.854 111.565 119.976C93.7492 126.098 77.3636 119.881 77.3636 119.881C77.3636 119.881 53.6342 109.896 47.9768 86.5855C42.3194 63.2746 54.2632 47.525 54.2632 47.525C54.2632 47.525 66.6778 25.3182 95.4356 25.4749C124.193 25.6317 136.283 48.595 136.283 48.595L136.28 48.5984Z" fill="#0080FF"/>
<path d="M32.4453 130.391L144.537 0L70.8077 155L58.9932 131.411L32.4453 130.391Z" fill="#002DB7"/>
</svg>

